<svg xmlns="http://www.w3.org/2000/svg" xmlns:xlink="http://www.w3.org/1999/xlink" version="1.1" x="0px" y="0px" viewBox="0 0 100 125" style="enable-background:new 0 0 100 100;" xml:space="preserve"><path d="M86.4,45.2c0-0.1-0.2-1.8-1.4-3.5c-1.1-1.6-3.3-3.5-7.6-3.5c0,0,0,0-0.1,0c-6.7,0-9.9,4.5-10.7,5.9  c-1.5,2.5-1.9,5.4-1.1,8.5c0,0,0,0.1,0,0.1c-5-6.1-10.8-13.4-12.1-18.5C53.1,32.8,53,31,53,29.1c-0.1-4.5-0.3-10.2-4.8-13.6  c-1.7-1.3-4.6-2.4-7.4-2.8c-2.4-0.3-5.9-0.4-8.9,1.4c-3.9,2.4-6.4,7.9-7,9.4l-8.9,1c-1.2,0.1-2.2,1.1-2.3,2.3  c-0.3,3.2,0.1,4,0.2,4.3c1.1,2.4,4.3,6.3,8.5,7c2.4,0.5,4.9,0.3,7.1,0.2c3.3-0.2,5.2-0.2,5.5,1.1c0.1,0.6-0.5,1.5-1.2,2.7  c-1.4,2.3-3.6,5.9-3.1,11.6c0.2,1.7,1.2,3.6,2.3,5.5c1.4,2.4,2.8,4.8,2.9,7.5C36,71.7,33.6,79.2,33,81c-1.1,0.1-4,0.6-5.1,2  c-0.4,0.5-0.5,1.1-0.4,1.7c0.3,1.1,1.2,1.9,2.4,1.9h14.5c0.7,0.1,7.8,0.8,15.2,0.8c6.4,0,13.1-0.6,16.1-2.6  c3.7-2.5,7.2-11.5,7.3-15.8c0.1-2.3-0.9-5-1.8-7.8c-1.4-3.9-2.9-8.3-2.1-12.4c0.3-1.3,0.9-2.3,1.8-2.8c1.9-1.1,4.6-0.2,4.7-0.2  c0.2,0.1,0.4,0,0.6-0.1C86.3,45.6,86.4,45.4,86.4,45.2z M51.8,29.2c0,0.6,0,1.1,0.1,1.7c-0.2,1.2-1,6.6-0.2,8.1  c1.9,3.6,2.4,6.7,1.3,9.2c-1,2.5-3.3,3.7-4.4,4.1c-2.5,0.7-4.5,0.7-6-0.2c-1.4-0.8-2.4-2.4-2.9-4.8C39,44.1,39,37,39.3,31.3  c0.8-13.2,3.2-16.3,3.9-16.8c1.7,0.5,3.2,1.2,4.3,2C51.5,19.6,51.6,24.7,51.8,29.2z M80.3,45c-1.3,0.7-2.1,2-2.4,3.7  c-0.9,4.4,0.7,9,2.1,13c1,2.7,1.9,5.3,1.8,7.4c-0.1,2-1,5.2-2.2,8.1c-1.4,3.2-3.1,5.7-4.6,6.7c-6.2,4.2-30.3,1.6-30.5,1.6  c0,0,0,0,0,0c0,0,0,0,0,0c0,0,0,0,0,0c-0.5,0-2-0.3-2.5-1c-0.1-0.2-0.2-0.4-0.1-0.9c0.2-0.7,2.4-0.7,4-0.8c2,0,3.9-0.1,4.8-1  c1.3-1.4,0.8-3.1,0.2-5.1c-0.9-3.1-1.9-6.8,2.3-11.4c0.7-0.7,3.2-2.3,4.2-2.9c0.3-0.2,0.4-0.5,0.2-0.8c-0.2-0.3-0.5-0.4-0.8-0.2  c-0.4,0.2-3.5,2.1-4.4,3.1c-4.7,5.1-3.5,9.4-2.6,12.6c0.6,2,0.8,3.2,0.1,4c-0.5,0.5-2.4,0.6-3.9,0.6c-2.4,0.1-4.7,0.1-5.2,1.6  c-0.3,0.9-0.1,1.6,0.2,2c0.1,0.1,0.1,0.2,0.2,0.3H29.9c-0.6,0-1.1-0.4-1.2-0.9c-0.1-0.3,0-0.5,0.1-0.7c0.7-0.9,3.2-1.5,4.6-1.6  c0.2,0,0.5-0.2,0.5-0.4c0.1-0.4,3.2-9.3,3-14.9c-0.1-2.9-1.7-5.6-3-8c-1.1-1.8-2.1-3.6-2.2-5c-0.5-5.3,1.5-8.5,2.9-10.9  c0.8-1.4,1.5-2.5,1.3-3.5c-0.2-1.2-1-1.9-2.4-2.1c-1.1-0.2-2.6-0.1-4.3,0c-2.1,0.1-4.5,0.2-6.8-0.2c-3.7-0.7-6.6-4.3-7.6-6.4  c-0.1-0.2-0.3-1-0.1-3.7c0.1-0.6,0.5-1.1,1.2-1.2l9.2-1c0.2,0,0.4-0.2,0.5-0.4c0-0.1,2.6-6.7,6.7-9.2c2.1-1.3,4.9-1.7,8.1-1.3  c0.4,0.1,0.8,0.1,1.2,0.2c-1.2,1.6-3.1,5.8-3.8,17.1c-0.3,5.4-0.4,12.8,0.4,16.4c0.6,2.8,1.8,4.6,3.5,5.6c1,0.6,2.1,0.8,3.4,0.8  c1.1,0,2.2-0.2,3.5-0.6c1.3-0.4,4-1.8,5.2-4.8c1.2-2.9,0.7-6.3-1.4-10.3c-0.2-0.4-0.3-1.6-0.2-3c2,5.7,8.2,13.3,13.3,19.4  c1.7,2,3.3,4,4.4,5.5c3.6,4.8,4.4,9.4,4.4,12.4c0,3.3-0.9,5.4-0.9,5.4c-0.1,0.3,0,0.7,0.3,0.8c0.3,0.1,0.7,0,0.8-0.3  c0-0.1,1-2.3,1-5.8c0-3.2-0.8-8.1-4.6-13.2c-0.9-1.1-1.9-2.5-3.1-3.9c-0.3-0.4-3.4-5.9-0.4-11.1c0.7-1.2,3.6-5.3,9.6-5.3  c0,0,0,0,0.1,0c5.4,0,7.1,3.4,7.6,5.1C83.9,44.2,81.9,44.1,80.3,45z"/><text x="0" y="115" fill="#000000" font-size="5px" font-weight="bold" font-family="'Helvetica Neue', Helvetica, Arial-Unicode, Arial, Sans-serif">Created by Timo Schmid</text><text x="0" y="120" fill="#000000" font-size="5px" font-weight="bold" font-family="'Helvetica Neue', Helvetica, Arial-Unicode, Arial, Sans-serif">from the Noun Project</text></svg>